<svg width="233" height="48" viewBox="0 0 233 48" fill="none" xmlns="http://www.w3.org/2000/svg">
<path d="M3.10935 47.9764C2.73196 47.9764 2.30739 47.6698 1.83564 47.0565C1.3639 46.4432 1.15161 45.8536 1.19879 45.2875C1.24596 44.5327 1.45825 43.4477 1.83564 42.0324C2.21304 40.6172 2.63761 39.1784 3.10935 37.716C3.5811 36.2536 4.00567 35.0978 4.38306 34.2486C4.57176 33.4939 4.73687 32.8334 4.87839 32.2673C5.06709 31.6541 5.18503 31.2531 5.2322 31.0644C5.37372 30.8757 5.58601 30.3803 5.86906 29.5784C6.19928 28.7764 6.45874 27.998 6.64743 27.2432C6.74178 26.8658 6.93048 26.1582 7.21353 25.1204C7.54375 24.0354 7.92114 22.7853 8.34571 21.37C8.81746 19.9548 9.26562 18.5631 9.69019 17.1951C10.1619 15.827 10.5629 14.6241 10.8931 13.5862C11.2234 12.5484 11.4356 11.8644 11.53 11.5342C11.9074 10.9681 12.1904 10.4256 12.3791 9.90663C12.5678 9.38771 12.6858 9.03391 12.7329 8.84521C13.016 8.65651 13.1811 8.42064 13.2283 8.13759C13.2754 7.80737 13.299 7.54791 13.299 7.35921C13.299 7.12334 13.3698 6.93464 13.5113 6.79312C13.7 6.6516 13.7944 6.48649 13.7944 6.29779C13.9831 6.15626 14.101 5.94398 14.1482 5.66093C14.1953 5.33071 14.3369 5.04766 14.5727 4.81179L14.9266 3.60885L19.1015 3.53808C19.0071 4.10417 18.8656 4.81179 18.6769 5.66093C18.4882 6.4629 18.0401 7.54791 17.3324 8.91597C17.0966 9.85946 16.8135 10.7086 16.4833 11.4634C16.2003 12.2182 16.0823 12.7135 16.1295 12.9494C16.0351 13.0437 15.8229 13.5155 15.4926 14.3646C15.2096 15.2138 14.8558 16.2516 14.4312 17.4781C14.0538 18.7047 13.6528 19.9312 13.2283 21.1577C12.8509 22.3843 12.4971 23.4693 12.1668 24.4128C11.8838 25.3091 11.6951 25.8752 11.6008 26.1111C11.2234 26.8658 10.7988 27.9744 10.327 29.4369C9.8553 30.8993 9.14768 32.8806 8.20419 35.3808C7.8268 36.1356 7.35505 37.2678 6.78896 38.7774C6.27004 40.287 5.84547 41.655 5.51525 42.8816C4.99633 44.7214 4.61893 45.9951 4.38306 46.7027C4.19436 47.4575 4.02925 47.8585 3.88773 47.9056C3.74621 48 3.48675 48.0236 3.10935 47.9764ZM3.67544 5.80245C2.35456 5.84963 1.3639 5.77887 0.703454 5.59017C0.0901867 5.40147 -0.122098 4.92973 0.066599 4.17494C0.208123 3.60884 0.514756 3.18427 0.9865 2.90122C1.45825 2.61818 2.14227 2.40589 3.03859 2.26437C3.55751 2.17002 4.21795 2.05209 5.01992 1.91056C5.86906 1.76904 6.67102 1.62752 7.42581 1.48599C8.98257 1.29729 10.2563 1.13218 11.2469 0.990663C12.2848 0.849139 13.3462 0.731203 14.4312 0.636855C15.5162 0.542505 16.8843 0.448156 18.5354 0.353808C19.9035 0.259458 21.0592 0.188695 22.0027 0.141522C22.9934 0.0471738 23.4887 0 23.4887 0C23.6302 0 24.1256 0.0471738 24.9747 0.141522C25.8238 0.235869 26.7438 0.353805 27.7344 0.49533C28.7251 0.636854 29.4563 0.801965 29.928 0.990663C31.013 1.22654 31.7914 1.55676 32.2632 1.98133C32.7821 2.4059 33.1359 3.01916 33.3246 3.82113C33.4661 4.38722 33.4661 4.74103 33.3246 4.88256C33.1831 4.9769 32.9236 5.11843 32.5462 5.30712C31.4612 5.63734 30.6592 5.80245 30.1403 5.80245C29.6214 5.80245 29.0317 5.68452 28.3713 5.44865C28.1354 5.21277 27.8523 5.00049 27.5221 4.81179C27.2391 4.62309 26.7202 4.48157 25.9654 4.38722C25.2578 4.2457 24.1256 4.12776 22.5688 4.03341C21.2479 4.17494 20.0922 4.2457 19.1015 4.2457C18.1108 4.2457 17.6155 4.36364 17.6155 4.59951L13.4406 4.81179L9.97323 5.1656C9.50149 5.21278 8.84105 5.28354 7.99191 5.37789C7.14277 5.42506 6.31721 5.49582 5.51525 5.59017C4.71328 5.63735 4.10001 5.70811 3.67544 5.80245Z" fill="#CB5143"/>
<path d="M16.6906 42.3862C16.266 42.056 15.9594 41.7258 15.7707 41.3956C15.6292 41.0654 15.6292 40.4285 15.7707 39.485C15.9122 38.1641 16.1009 37.0084 16.3368 36.0177C16.5727 34.9799 16.8557 33.8005 17.1859 32.4796C17.2803 31.9135 17.5398 30.9464 17.9643 29.5784C18.4361 28.2103 19.0022 26.7243 19.6626 25.1204C20.323 23.5165 20.9835 22.0069 21.6439 20.5916C22.3044 19.1292 22.8705 18.0442 23.3422 17.3366C23.7196 17.0536 24.1678 16.9356 24.6867 16.9828C25.2528 17.03 25.7245 17.2423 26.1019 17.6197C26.6208 18.0442 26.6916 18.799 26.3142 19.884C25.984 20.9219 25.2764 22.573 24.1914 24.8373C23.6253 26.1111 23.2007 27.0781 22.9176 27.7386C22.6346 28.3518 22.5167 28.7292 22.5638 28.8708C22.611 28.9651 22.8233 28.8943 23.2007 28.6585C23.4837 28.1396 24.0027 27.5499 24.7574 26.8894C25.5122 26.1818 26.3142 25.4978 27.1633 24.8373C28.0125 24.1769 28.8145 23.5872 29.5692 23.0683C30.324 22.5494 30.8429 22.2192 31.126 22.0776C31.5034 21.8418 31.928 21.6531 32.3997 21.5115C32.9186 21.3228 33.2724 21.1813 33.4611 21.087C34.5461 20.5681 35.6547 20.3794 36.7869 20.5209C37.9191 20.6624 38.6267 21.087 38.9098 21.7946C38.957 22.172 39.0985 22.455 39.3343 22.6437C39.6174 22.8324 39.7589 22.9268 39.7589 22.9268C39.9476 22.9268 40.042 22.9975 40.042 23.1391C40.0891 23.2806 40.1127 23.3514 40.1127 23.3514C40.1127 23.6816 39.8533 23.8939 39.3343 23.9882C38.8626 24.0354 38.2493 24.0826 37.4945 24.1297C36.8813 24.1769 36.3388 24.2948 35.867 24.4835C35.3953 24.6722 34.8292 24.9081 34.1687 25.1912C32.3761 26.229 30.6543 27.2432 29.0031 28.2339C27.3992 29.2246 25.8425 30.5455 24.3329 32.1966C24.0027 32.574 23.6724 33.0221 23.3422 33.541C23.012 34.0599 22.6582 34.626 22.2808 35.2393C22.0449 35.4752 21.809 35.9941 21.5732 36.7961C21.3373 37.598 21.125 38.3764 20.9363 39.1312C20.7948 39.8388 20.724 40.2634 20.724 40.4049C20.724 40.4049 20.6533 40.6408 20.5117 41.1125C20.3702 41.5371 20.1343 41.9617 19.8041 42.3862C19.238 43.141 18.7663 43.5184 18.3889 43.5184C18.0115 43.5184 17.4454 43.141 16.6906 42.3862Z" fill="#CB5143"/>
<path d="M34.6265 42.3155C34.4378 41.9381 34.2019 41.655 33.9189 41.4663C33.6358 41.2305 33.4943 41.0182 33.4943 40.8295C33.4943 40.6408 33.4707 40.4521 33.4235 40.2634C33.4235 40.0275 33.3292 39.8152 33.1405 39.6265C32.9046 39.3435 32.9282 38.7066 33.2113 37.716C33.4943 36.6781 33.966 35.428 34.6265 33.9656C35.2869 32.456 36.0653 30.8757 36.9616 29.2246C37.339 28.8472 37.7164 28.3518 38.0938 27.7386C38.4712 27.1253 38.7543 26.7243 38.943 26.5356C38.943 26.3469 39.0137 26.1818 39.1552 26.0403C39.2968 25.8516 39.4619 25.7572 39.6506 25.7572V25.3327C39.6506 25.0968 39.8628 24.6958 40.2874 24.1297C40.7592 23.5636 41.3253 22.9504 41.9857 22.2899C42.6461 21.5823 43.3302 20.9219 44.0378 20.3086C44.7454 19.6482 45.3351 19.1764 45.8068 18.8934C46.7975 18.2329 47.8117 17.8319 48.8496 17.6904C49.9346 17.5489 50.8545 17.7848 51.6093 18.398C51.7508 18.5396 51.9867 18.7754 52.3169 19.1056C52.6471 19.4359 53.0245 19.8133 53.4491 20.2378C53.9208 20.6152 54.3926 21.0162 54.8643 21.4408L57.4825 23.7759L56.2088 27.314C55.5955 29.201 55.4304 30.8521 55.7135 32.2673C56.0437 33.6826 56.5154 34.9091 57.1287 35.9469C57.3646 36.4658 57.8363 36.9612 58.5439 37.4329C59.2987 37.9047 60.0063 38.1877 60.6668 38.2821C61.0442 38.3292 61.398 38.4708 61.7282 38.7066C62.0584 38.9425 62.2235 39.3199 62.2235 39.8388C62.2235 40.3106 62.1292 40.688 61.9405 40.971C61.7518 41.2541 61.4216 41.4428 60.9498 41.5371C59.3931 41.7258 57.9307 41.3484 56.5626 40.4049C55.2417 39.4614 54.0152 37.9047 52.883 35.7346C52.6943 35.4516 52.4348 34.9327 52.1046 34.1779C51.8216 33.3759 51.6565 32.857 51.6093 32.6211C51.4206 32.857 51.0668 33.3052 50.5479 33.9656C50.0289 34.5789 49.628 35.027 49.3449 35.3101C45.9955 38.7066 43.0943 40.9946 40.6412 42.174C38.2353 43.3061 36.2304 43.3533 34.6265 42.3155ZM37.1739 38.3528C37.1739 38.683 37.6692 38.683 38.6599 38.3528C39.6977 37.9754 40.8063 37.315 41.9857 36.3715C43.5896 35.0034 45.1936 33.4939 46.7975 31.8428C48.4486 30.1916 49.7695 28.6585 50.7601 27.2432L52.3169 24.6958C51.8452 23.6108 51.3262 22.8796 50.7601 22.5022C50.2412 22.0776 49.7931 21.8654 49.4157 21.8654C48.8024 21.8654 47.8825 22.4314 46.656 23.5636C45.4766 24.6958 44.2029 26.2054 42.8348 28.0924C41.4668 29.9794 40.1695 32.055 38.943 34.3194C38.4712 35.2629 38.0466 36.1828 37.6692 37.0791C37.339 37.9283 37.1739 38.3528 37.1739 38.3528Z" fill="#CB5143"/>
<path d="M60.6331 42.2447C60.4915 42.056 60.35 41.8201 60.2085 41.5371C60.1141 41.2541 60.067 41.0182 60.067 40.8295C60.067 40.7351 60.0434 40.6172 59.9962 40.4757C59.9962 40.3342 59.9019 40.2634 59.7132 40.2634C59.5716 40.1219 59.666 39.5794 59.9962 38.6359C60.3736 37.6452 60.8453 36.513 61.4114 35.2393C62.0247 33.9656 62.638 32.7391 63.2512 31.5597C63.9117 30.3332 64.4542 29.3661 64.8788 28.6585C65.1146 28.517 65.2562 28.3283 65.3033 28.0924C65.3977 27.8093 65.3977 27.6678 65.3033 27.6678C65.3033 27.6678 65.4213 27.4555 65.6571 27.031C65.9402 26.5592 66.1525 26.2526 66.294 26.1111C66.6714 25.4506 66.9544 24.7902 67.1431 24.1297C67.3318 23.4221 67.379 22.8324 67.2847 22.3607C67.096 22.1248 66.8837 22.0541 66.6478 22.1484C66.4119 22.2428 66.294 22.2899 66.294 22.2899C66.1053 22.3371 65.8222 22.4314 65.4449 22.573C65.1146 22.6673 64.808 22.8088 64.5249 22.9975C63.4399 23.7523 62.7087 24.1061 62.3313 24.059C61.9539 23.9646 61.5294 23.3513 61.0576 22.2192C60.8689 21.7002 60.7982 21.3228 60.8453 21.087C60.8925 20.8511 61.0812 20.5916 61.4114 20.3086C61.7888 19.9784 62.1426 19.7661 62.4729 19.6717C62.8031 19.5302 63.0625 19.3887 63.2512 19.2472C63.7702 18.917 64.1947 18.6811 64.5249 18.5396C64.9023 18.398 65.1854 18.3037 65.3741 18.2565C66.6006 17.8791 67.6385 17.8084 68.4876 18.0442C69.3367 18.2801 69.9736 18.8934 70.3982 19.884C71.0586 20.686 71.3888 21.6059 71.3888 22.6437C71.3888 23.6344 71.0586 24.7902 70.3982 26.1111L69.6906 27.1725C69.4547 27.6442 69.4075 27.8801 69.549 27.8801C69.7377 27.8801 69.95 27.715 70.1859 27.3848C70.3274 27.1961 70.6105 26.913 71.035 26.5356C71.4596 26.1582 71.7426 25.9695 71.8842 25.9695C71.8842 25.9695 71.9313 25.9459 72.0257 25.8988C72.1672 25.8516 72.238 25.6629 72.238 25.3327C72.3795 25.1912 72.521 25.0496 72.6625 24.9081C72.8512 24.7666 72.9456 24.6958 72.9456 24.6958C73.1343 24.6958 73.4881 24.4835 74.007 24.059C74.5731 23.5872 75.2336 23.0447 75.9883 22.4314C76.5073 22.0541 76.979 21.8654 77.4036 21.8654C78.4886 21.5351 79.3613 21.8889 80.0218 22.9268C80.7294 23.9646 81.0832 25.3091 81.0832 26.9602L79.5972 30.7813L82.1446 27.6678C82.4277 27.2904 82.7107 26.9602 82.9937 26.6771C83.324 26.3941 83.607 26.1582 83.8429 25.9695C83.9372 25.6393 84.0788 25.4506 84.2675 25.4034C84.4562 25.3563 84.5505 25.3327 84.5505 25.3327C84.5505 25.3327 84.5977 25.3327 84.692 25.3327C84.7864 25.2855 84.8336 25.1912 84.8336 25.0496C85.0694 24.8609 85.3289 24.6958 85.6119 24.5543C85.895 24.3656 86.0837 24.1769 86.178 23.9882C86.98 23.658 87.7112 23.6108 88.3716 23.8467C89.0321 24.0354 89.5982 24.6251 90.0699 25.6157C90.4001 26.1818 90.5888 26.6771 90.636 27.1017C90.6832 27.5263 90.7068 28.1631 90.7068 29.0123C90.6124 29.7199 90.5181 30.286 90.4237 30.7106C90.3766 31.088 90.3294 31.4889 90.2822 31.9135C90.235 32.3381 90.1643 32.9278 90.0699 33.6826C89.8812 34.0599 89.7633 34.4609 89.7161 34.8855C89.7161 35.3101 89.7161 35.7111 89.7161 36.0885C89.7161 36.7017 89.7397 37.1263 89.7869 37.3622C89.834 37.5509 90.0227 37.6452 90.353 37.6452C91.0134 37.5037 91.9097 37.1735 93.0419 36.6545C94.2213 36.0885 95.094 35.5459 95.6601 35.027C96.3677 34.3666 96.981 34.0364 97.4999 34.0364C98.066 33.9892 98.4198 34.2486 98.5613 34.8147C98.6557 35.0034 98.4906 35.428 98.066 36.0885C97.6886 36.7489 97.2404 37.3857 96.7215 37.999C96.2498 38.6123 95.896 38.9189 95.6601 38.9189C95.5186 38.9189 95.3535 39.0604 95.1648 39.3435C94.9761 39.5794 94.7638 39.7681 94.5279 39.9096C94.1977 40.2398 93.8675 40.5464 93.5372 40.8295C93.2542 41.1125 92.924 41.2541 92.5466 41.2541C92.3579 41.2541 92.122 41.3248 91.839 41.4663C91.6031 41.5607 91.32 41.6079 90.9898 41.6079C90.5181 41.7494 89.7869 41.6786 88.7962 41.3956C87.8527 41.1125 87.2394 40.4521 86.9564 39.4142C86.7677 38.8953 86.6026 38.0698 86.4611 36.9376C86.3195 35.7582 86.3431 34.5789 86.5318 33.3995C86.7205 32.5504 86.8385 31.772 86.8856 31.0644C86.9328 30.3568 87.0272 29.8614 87.1687 29.5784C87.1687 29.4369 87.1687 29.1066 87.1687 28.5877C87.1687 28.0216 87.0979 27.7386 86.9564 27.7386C86.7677 27.7386 86.3195 28.0924 85.6119 28.8C84.9515 29.4604 84.1495 30.3096 83.206 31.3474C82.3097 32.3853 81.4134 33.4703 80.5171 34.6025C79.6208 35.7346 78.8896 36.7489 78.3235 37.6452C77.8989 38.1641 77.5215 38.801 77.1913 39.5558C76.8611 40.3106 76.6252 40.7351 76.4837 40.8295C76.1535 41.2069 75.7525 41.2541 75.2807 40.971C74.8562 40.688 74.4552 40.2398 74.0778 39.6265C73.9363 39.3435 73.8419 39.1076 73.7947 38.9189C73.7476 38.683 73.7476 38.3764 73.7947 37.999C73.8891 37.5744 74.0542 36.9612 74.2901 36.1592C74.5731 35.3572 74.9505 34.2251 75.4222 32.7627C75.9412 31.1587 76.3893 29.7199 76.7667 28.4462C77.1913 27.1253 77.4036 26.4649 77.4036 26.4649C77.4036 26.2762 77.0498 26.4649 76.3422 27.031C75.6345 27.5499 74.809 28.2103 73.8655 29.0123C73.4409 29.5312 72.7333 30.3096 71.7426 31.3474C70.752 32.3853 69.667 33.5646 68.4876 34.8855C67.3082 36.2064 66.1761 37.598 65.091 39.0604C63.723 40.9946 62.7559 42.174 62.1898 42.5985C61.6709 43.0231 61.152 42.9052 60.6331 42.2447Z" fill="#CB5143"/>
<path d="M103.041 42.174C102.05 42.3627 101.413 42.4334 101.13 42.3862C100.894 42.2919 100.517 42.0088 99.9981 41.5371C99.2433 41.1597 98.6065 40.688 98.0875 40.1219C97.6158 39.5558 97.262 38.9661 97.0261 38.3528C96.8374 37.6924 96.7667 37.1499 96.8138 36.7253C96.9554 35.0742 97.3563 33.3052 98.0168 31.4182C98.6772 29.5312 99.4792 27.715 100.423 25.9695C101.366 24.2241 102.38 22.7381 103.465 21.5115C104.598 20.2378 105.683 19.4123 106.72 19.0349C107.664 18.6575 108.56 18.516 109.409 18.6103C110.259 18.7047 110.872 19.1528 111.249 19.9548C111.957 21.3228 111.792 22.1956 110.754 22.573C110.612 22.573 110.447 22.6437 110.259 22.7853C110.07 22.8796 109.976 23.0211 109.976 23.2098C110.164 23.3042 110.683 23.3278 111.532 23.2806C112.381 23.1862 113.231 23.0447 114.08 22.856C114.976 22.6201 115.566 22.3843 115.849 22.1484C116.132 22.0069 116.344 21.9361 116.486 21.9361C116.627 21.9361 116.981 21.9833 117.547 22.0776C118.349 22.3135 118.75 22.5966 118.75 22.9268C118.75 23.1155 118.821 23.3042 118.962 23.4929C119.104 23.6344 119.269 23.7052 119.458 23.7052C119.788 23.7523 119.741 23.9646 119.316 24.342C118.939 24.7194 118.278 25.2383 117.335 25.8988C116.438 26.4649 115.872 26.8423 115.636 27.031C115.448 27.1725 115.424 27.5027 115.566 28.0216C115.943 28.9179 115.967 29.9558 115.636 31.1351C115.306 32.3145 114.717 33.5174 113.867 34.744C113.018 35.9705 111.98 37.1263 110.754 38.2113C109.575 39.2491 108.301 40.1455 106.933 40.9002C105.612 41.6079 104.315 42.0324 103.041 42.174ZM101.838 39.0604C102.027 39.0604 102.357 38.9661 102.829 38.7774C103.3 38.5415 103.678 38.3528 103.961 38.2113C104.149 38.0226 104.385 37.8103 104.668 37.5744C104.999 37.2914 105.258 37.1263 105.447 37.0791C105.635 37.0791 105.871 37.0084 106.154 36.8668C106.437 36.6781 106.838 36.3243 107.357 35.8054C107.876 35.2393 108.56 34.4138 109.409 33.3287C110.353 32.2909 111.084 31.3474 111.603 30.4983C112.122 29.602 112.263 28.7764 112.028 28.0216C111.98 27.8329 111.839 27.715 111.603 27.6678C111.414 27.6206 111.155 27.5027 110.825 27.314C110.353 27.314 109.905 27.1961 109.48 26.9602C109.103 26.6771 108.655 26.3233 108.136 25.8988L107.004 24.4835L105.801 25.6865C105.046 26.4413 104.244 27.5735 103.395 29.083C102.593 30.5455 101.909 32.055 101.343 33.6118C100.776 35.1214 100.446 36.3243 100.352 37.2206C100.305 37.9283 100.423 38.4 100.706 38.6359C100.989 38.8717 101.366 39.0133 101.838 39.0604Z" fill="#CB5143"/>
<path d="M117.585 41.7494C117.396 41.7494 117.113 41.6314 116.736 41.3956C116.406 41.1125 116.146 40.8767 115.958 40.688C115.627 40.3106 115.415 39.9332 115.321 39.5558C115.274 39.1784 115.25 38.3292 115.25 37.0084C115.25 35.4988 115.557 33.8713 116.17 32.1258C116.783 30.3332 117.821 27.8329 119.283 24.6251L121.619 19.6717C121.807 19.2943 121.972 19.0113 122.114 18.8226C122.303 18.6339 122.468 18.4452 122.609 18.2565C122.798 18.2565 122.963 18.2565 123.105 18.2565C123.246 18.2565 123.317 18.2565 123.317 18.2565C123.694 18.2565 124.072 18.4924 124.449 18.9641C124.826 19.3887 125.109 19.8604 125.298 20.3794C125.298 20.9926 125.204 21.6295 125.015 22.2899C124.874 22.9504 124.308 23.941 123.317 25.2619C122.987 25.7808 122.538 26.6536 121.972 27.8801C121.453 29.1066 121.1 30.1681 120.911 31.0644C120.864 31.1115 120.769 31.3238 120.628 31.7012C120.486 32.0314 120.321 32.4088 120.133 32.8334C119.991 33.258 119.826 33.659 119.637 34.0364L119.283 35.5931L124.024 30.7106C126.242 28.4934 128.034 26.913 129.402 25.9695C130.77 25.026 131.855 24.6251 132.657 24.7666C133.459 24.9081 134.143 25.545 134.709 26.6771C135.04 27.1961 135.276 27.6678 135.417 28.0924C135.606 28.4698 135.724 28.9887 135.771 29.6491C135.818 30.3096 135.771 31.3002 135.629 32.6211V37.0084C136.337 36.8197 136.903 36.6545 137.328 36.513C137.752 36.3243 138.2 36.1356 138.672 35.9469C139.097 35.7582 139.592 35.5931 140.158 35.4516C140.724 35.2629 141.432 35.145 142.281 35.0978C142.234 35.7111 142.022 36.3715 141.644 37.0791C141.267 37.7396 140.795 38.3764 140.229 38.9897C139.663 39.6029 139.026 40.0983 138.318 40.4757C137.658 40.8531 136.997 41.0418 136.337 41.0418C135.724 41.0418 135.04 40.7351 134.285 40.1219C133.53 39.5086 132.988 38.8246 132.657 38.0698C132.469 37.5509 132.351 36.9848 132.304 36.3715C132.304 35.7582 132.304 34.626 132.304 32.9749V30.3568C132.304 29.602 132.068 29.3897 131.596 29.7199C131.171 30.0029 130.818 30.2624 130.535 30.4983C129.827 31.1115 129.072 31.8192 128.27 32.6211C127.515 33.4231 126.737 34.2486 125.935 35.0978C123.765 37.3622 121.949 39.0369 120.486 40.1219C119.071 41.2069 118.104 41.7494 117.585 41.7494Z" fill="#CB5143"/>
<path d="M145.267 44.3676C144.748 44.2732 144.205 44.0138 143.639 43.5892C143.12 43.1174 142.649 42.5985 142.224 42.0324C141.847 41.4192 141.587 40.8767 141.446 40.4049C141.446 40.3106 141.375 40.1926 141.233 40.0511C141.139 39.9096 141.092 39.8388 141.092 39.8388C140.903 39.6973 140.785 39.084 140.738 37.999C140.738 36.8668 140.809 35.6167 140.95 34.2486C141.092 32.8806 141.257 31.7956 141.446 30.9936C141.682 30.2388 142.035 29.2246 142.507 27.9509C142.979 26.63 143.38 25.4506 143.71 24.4128L145.621 20.3086L142.79 19.5302C142.46 19.4359 142.177 19.2472 141.941 18.9641C141.752 18.6811 141.658 18.4452 141.658 18.2565C141.658 17.8791 141.87 17.431 142.295 16.912C142.719 16.3459 143.026 16.0629 143.215 16.0629C143.451 16.1101 143.875 16.1337 144.488 16.1337C145.149 16.1337 145.786 16.1101 146.399 16.0629C147.012 16.0157 147.39 15.9685 147.531 15.9214C147.72 15.827 147.909 15.7091 148.097 15.5676C148.286 15.3789 148.427 15.1194 148.522 14.7892C148.758 14.2703 148.97 13.7985 149.159 13.374C149.347 12.9022 149.607 12.3833 149.937 11.8172C150.267 11.2039 150.527 10.685 150.715 10.2604C150.951 9.83587 151.305 9.24619 151.777 8.4914C152.013 8.16118 152.272 7.76019 152.555 7.28845C152.838 6.81671 153.192 6.41572 153.617 6.0855C154.041 5.7081 154.466 5.54299 154.89 5.59017C155.362 5.59017 155.952 5.8968 156.659 6.51007C157.037 6.98182 157.249 7.33563 157.296 7.5715C157.343 7.80737 157.155 8.25553 156.73 8.91597C156.353 9.71793 155.905 10.5199 155.386 11.3219C154.914 12.1238 154.466 12.9258 154.041 13.7278C153.286 14.7656 153.145 15.3553 153.617 15.4968C154.088 15.6383 155.409 15.544 157.579 15.2138C158.947 14.9779 159.938 15.0486 160.551 15.426C161.165 15.7563 161.518 16.3224 161.613 17.1243C161.754 18.2565 161.636 18.9405 161.259 19.1764C160.882 19.4123 159.797 19.5302 158.004 19.5302C156.872 19.7189 155.905 19.8369 155.103 19.884C154.301 19.884 153.711 19.884 153.334 19.884C152.72 19.9312 152.319 19.9548 152.131 19.9548C151.942 19.9548 151.659 20.002 151.282 20.0963C150.904 20.1907 150.621 20.3558 150.432 20.5916C150.291 20.7803 150.126 21.0634 149.937 21.4408C149.748 21.6295 149.465 22.1248 149.088 22.9268C148.711 23.7287 148.239 24.6015 147.673 25.545C147.012 27.5263 146.446 29.5076 145.974 31.4889C145.503 33.4231 145.125 35.3101 144.842 37.1499C144.654 38.3292 144.677 39.1548 144.913 39.6265C145.149 40.0511 145.762 40.3106 146.753 40.4049C147.272 40.4521 148.097 40.4521 149.229 40.4049C150.409 40.3106 151.329 40.169 151.989 39.9803C152.508 39.7445 153.051 39.5086 153.617 39.2727C154.183 38.9897 154.702 38.7066 155.173 38.4236C155.598 38.1877 156.023 37.9518 156.447 37.716C156.872 37.4329 157.084 37.2914 157.084 37.2914C157.32 36.914 157.579 36.7961 157.862 36.9376C158.145 37.0791 158.381 37.4329 158.57 37.999C158.57 38.5651 158.452 39.1548 158.216 39.7681C157.98 40.3813 157.108 41.1125 155.598 41.9617C153.475 43.2826 151.517 44.0845 149.725 44.3676C147.979 44.6034 146.493 44.6034 145.267 44.3676Z" fill="#CB5143"/>
<path d="M161.121 42.5278C160.555 42.6221 159.942 42.5278 159.281 42.2447C158.621 41.9617 158.031 41.5607 157.512 41.0418C157.041 40.5228 156.734 39.9803 156.593 39.4142C156.404 38.4236 156.522 37.1971 156.946 35.7346C157.418 34.2251 158.079 32.6447 158.928 30.9936C159.824 29.2953 160.815 27.6678 161.9 26.1111C163.032 24.5543 164.188 23.2098 165.367 22.0776C166.593 20.8983 167.726 20.0963 168.764 19.6717C169.282 19.3415 169.683 19.1292 169.966 19.0349C170.297 18.8934 170.627 18.8698 170.957 18.9641C171.335 19.0585 171.877 19.2943 172.585 19.6717C173.245 19.8604 173.74 20.0727 174.071 20.3086C174.401 20.5445 174.825 21.0162 175.344 21.7238C175.722 22.4314 176.005 23.1391 176.193 23.8467C176.382 24.5543 176.547 25.3563 176.689 26.2526C177.066 27.4319 177.208 28.2103 177.113 28.5877C177.019 28.9179 176.878 29.1774 176.689 29.3661C176.311 29.8378 176.217 30.0737 176.406 30.0737C176.406 30.0737 176.382 30.1681 176.335 30.3568C176.335 30.4983 176.241 30.7341 176.052 31.0644C175.722 32.1022 175.462 33.1872 175.274 34.3194C175.132 35.4044 175.156 36.3007 175.344 37.0084C175.722 38.0462 176.406 38.6595 177.396 38.8482C178.387 39.0369 179.401 38.6123 180.439 37.5744C180.958 37.197 181.453 36.8668 181.925 36.5838C182.397 36.2536 182.633 36.2771 182.633 36.6545C182.633 36.6545 182.704 36.7253 182.845 36.8668C182.987 36.9612 183.152 37.0084 183.34 37.0084C183.576 37.0084 183.718 37.1027 183.765 37.2914C183.859 37.4801 183.859 37.7396 183.765 38.0698C183.718 38.3528 183.576 38.683 183.34 39.0604C182.633 39.7681 182.279 40.2398 182.279 40.4757C182.279 40.4757 182.185 40.57 181.996 40.7587C181.854 40.9002 181.595 41.1361 181.218 41.4663C180.368 41.9853 179.283 42.2447 177.963 42.2447C176.689 42.2447 175.698 41.9853 174.991 41.4663C174.283 40.9474 173.622 40.2398 173.009 39.3435C172.443 38.4472 172.066 37.6688 171.877 37.0084L171.523 36.3007L169.471 37.6452C168.952 38.1641 168.386 38.6595 167.773 39.1312C167.207 39.6029 166.829 39.9332 166.641 40.1219C166.499 40.3106 166.334 40.4757 166.145 40.6172C166.004 40.7587 165.839 40.8295 165.65 40.8295C165.461 40.8295 165.296 40.8295 165.155 40.8295C165.013 40.8295 164.942 40.8295 164.942 40.8295C164.942 41.0182 164.707 41.2541 164.235 41.5371C163.81 41.8201 163.291 42.056 162.678 42.2447C162.112 42.4334 161.593 42.5278 161.121 42.5278ZM160.414 38.7066C160.697 38.7066 161.192 38.4943 161.9 38.0698C162.654 37.598 163.48 37.0555 164.376 36.4423C165.32 35.829 166.145 35.2157 166.853 34.6025C167.608 33.9892 168.127 33.5174 168.41 33.1872C168.598 32.9985 168.905 32.6919 169.33 32.2673C169.754 31.7956 170.132 31.3946 170.462 31.0644C171.547 29.8378 172.302 28.4934 172.726 27.031C173.151 25.5214 173.104 24.342 172.585 23.4929C172.396 22.974 172.16 22.6909 171.877 22.6437C171.594 22.5966 171.004 22.7617 170.108 23.1391C169.542 23.4693 168.834 24.1061 167.985 25.0496C167.183 25.9459 166.31 27.0074 165.367 28.2339C164.471 29.4133 163.622 30.6398 162.82 31.9135C162.018 33.1872 161.357 34.3666 160.838 35.4516C160.319 36.5366 160.06 37.3857 160.06 37.999C160.06 38.1877 160.107 38.3528 160.201 38.4943C160.343 38.6359 160.414 38.7066 160.414 38.7066Z" fill="#CB5143"/>
<path d="M201.325 44.0138C200.853 44.0138 200.358 43.7543 199.839 43.2354C199.367 42.7165 198.943 42.0796 198.565 41.3248C198.235 40.5228 198.07 39.7681 198.07 39.0604C198.07 38.3528 198.235 37.0319 198.565 35.0978C198.943 33.1636 199.391 31.2059 199.91 29.2246C200.287 27.998 200.405 27.2904 200.264 27.1017C200.122 26.913 199.485 27.1725 198.353 27.8801C197.693 28.2103 197.103 28.5641 196.584 28.9415C196.065 29.2717 195.617 29.6491 195.239 30.0737C195.004 30.2624 194.65 30.569 194.178 30.9936C193.706 31.4182 193.211 31.8192 192.692 32.1966C192.079 32.6683 191.3 33.3287 190.357 34.1779C189.413 35.027 188.47 35.8762 187.526 36.7253C186.63 37.5744 185.946 38.2349 185.474 38.7066C185.38 38.8953 185.238 39.0604 185.05 39.202C184.861 39.3435 184.649 39.4378 184.413 39.485C184.177 39.485 183.918 39.4378 183.635 39.3435C183.116 39.202 182.62 38.8953 182.149 38.4236C181.724 37.9518 181.512 37.4093 181.512 36.7961C181.512 36.3243 181.7 35.5224 182.078 34.3902C182.455 33.2108 182.951 31.7956 183.564 30.1445C184.224 28.4934 184.979 26.7479 185.828 24.9081C185.97 24.6722 186.088 24.3892 186.182 24.059C186.276 23.6816 186.347 23.2806 186.394 22.856C186.489 22.4314 186.536 22.0305 186.536 21.6531C186.536 21.4172 186.559 21.1813 186.607 20.9455C186.701 20.6624 186.795 20.4029 186.89 20.1671C187.031 19.884 187.149 19.6953 187.243 19.601C187.432 19.2236 187.762 19.1292 188.234 19.3179C188.706 19.4595 189.107 19.7897 189.437 20.3086C190.145 20.969 190.498 21.7946 190.498 22.7853C190.546 23.7759 190.31 25.0025 189.791 26.4649C189.602 26.7951 189.437 27.1253 189.295 27.4555C189.201 27.7386 189.107 27.998 189.012 28.2339C188.918 28.4226 188.847 28.5877 188.8 28.7292C188.753 28.8236 188.729 28.8708 188.729 28.8708C188.918 28.8708 189.343 28.6585 190.003 28.2339C190.664 27.8093 191.442 27.3376 192.338 26.8187C193.046 26.2998 193.659 25.828 194.178 25.4034C194.744 24.9317 195.216 24.5779 195.593 24.342C195.971 24.059 196.207 23.9174 196.301 23.9174C196.49 23.9174 196.725 23.8467 197.008 23.7052C197.292 23.5636 197.527 23.3985 197.716 23.2098C197.905 23.0211 198.046 22.9268 198.141 22.9268C198.282 22.8796 198.353 22.856 198.353 22.856C198.353 22.856 198.447 22.856 198.636 22.856C198.825 22.8088 199.013 22.6909 199.202 22.5022C199.58 22.2192 200.075 22.1484 200.688 22.2899C201.301 22.3843 201.867 22.6201 202.386 22.9975C202.905 23.3749 203.165 23.7995 203.165 24.2713C203.165 24.4599 203.212 24.6251 203.306 24.7666C203.448 24.8609 203.519 24.9081 203.519 24.9081C203.896 24.9081 204.132 25.4978 204.226 26.6771C204.368 27.8565 204.25 28.9887 203.872 30.0737C203.872 30.7813 203.731 31.6305 203.448 32.6211C203.212 33.6118 203 34.5553 202.811 35.4516C202.434 36.631 202.174 37.6688 202.033 38.5651C201.891 39.4614 201.867 40.2162 201.962 40.8295C202.056 41.4428 202.221 41.9381 202.457 42.3155C202.646 42.6457 202.646 43.0231 202.457 43.4477C202.268 43.8251 201.891 44.0138 201.325 44.0138Z" fill="#CB5143"/>
<path d="M205.372 42.3155C205.183 41.9381 204.948 41.655 204.665 41.4663C204.382 41.2305 204.24 41.0182 204.24 40.8295C204.24 40.6408 204.216 40.4521 204.169 40.2634C204.169 40.0275 204.075 39.8152 203.886 39.6265C203.65 39.3435 203.674 38.7066 203.957 37.716C204.24 36.6781 204.712 35.428 205.372 33.9656C206.033 32.456 206.811 30.8757 207.707 29.2246C208.085 28.8472 208.462 28.3518 208.839 27.7386C209.217 27.1253 209.5 26.7243 209.689 26.5356C209.689 26.3469 209.759 26.1818 209.901 26.0403C210.042 25.8516 210.208 25.7572 210.396 25.7572V25.3327C210.396 25.0968 210.609 24.6958 211.033 24.1297C211.505 23.5636 212.071 22.9504 212.731 22.2899C213.392 21.5823 214.076 20.9219 214.783 20.3086C215.491 19.6482 216.081 19.1764 216.553 18.8934C217.543 18.2329 218.557 17.8319 219.595 17.6904C220.68 17.5489 221.6 17.7848 222.355 18.398C222.497 18.5396 222.732 18.7754 223.063 19.1056C223.393 19.4359 223.77 19.8133 224.195 20.2378C224.667 20.6152 225.138 21.0162 225.61 21.4408L228.228 23.7759L226.954 27.314C226.341 29.201 226.176 30.8521 226.459 32.2673C226.789 33.6826 227.261 34.9091 227.874 35.9469C228.11 36.4658 228.582 36.9612 229.29 37.4329C230.044 37.9047 230.752 38.1877 231.412 38.2821C231.79 38.3292 232.144 38.4708 232.474 38.7066C232.804 38.9425 232.969 39.3199 232.969 39.8388C232.969 40.3106 232.875 40.688 232.686 40.971C232.497 41.2541 232.167 41.4428 231.696 41.5371C230.139 41.7258 228.676 41.3484 227.308 40.4049C225.987 39.4614 224.761 37.9047 223.629 35.7346C223.44 35.4516 223.181 34.9327 222.85 34.1779C222.567 33.3759 222.402 32.857 222.355 32.6211C222.166 32.857 221.812 33.3052 221.294 33.9656C220.775 34.5789 220.374 35.027 220.091 35.3101C216.741 38.7066 213.84 40.9946 211.387 42.174C208.981 43.3061 206.976 43.3533 205.372 42.3155ZM207.92 38.3528C207.92 38.683 208.415 38.683 209.406 38.3528C210.443 37.9754 211.552 37.315 212.731 36.3715C214.335 35.0034 215.939 33.4939 217.543 31.8428C219.194 30.1916 220.515 28.6585 221.506 27.2432L223.063 24.6958C222.591 23.6108 222.072 22.8796 221.506 22.5022C220.987 22.0776 220.539 21.8654 220.161 21.8654C219.548 21.8654 218.628 22.4314 217.402 23.5636C216.222 24.6958 214.949 26.2054 213.581 28.0924C212.212 29.9794 210.915 32.055 209.689 34.3194C209.217 35.2629 208.792 36.1828 208.415 37.0791C208.085 37.9283 207.92 38.3528 207.92 38.3528Z" fill="#CB5143"/>
</svg>
